<svg class="eco-diagrama-svg" width="1001" height="914" viewBox="-30 -30 1001 914" fill="none" xmlns="http://www.w3.org/2000/svg">
<style type="text/css">
  /* ===== Animações do diagrama (autossuficientes) ===== */

  /* Flutuação + brilho/pulso do diagrama inteiro */
  .eco-diagrama {
    transform-box: fill-box;
    transform-origin: center;
    animation:
      eco-pulse 2.4s ease-in-out infinite,
      eco-float 5s ease-in-out infinite;
  }
  @keyframes eco-pulse {
    0%, 100% { filter: drop-shadow(0 0 0 rgba(0, 0, 0, 0)); }
    50%      { filter: drop-shadow(0 0 24px rgba(0, 0, 0, 0.18)); }
  }
  @keyframes eco-float {
    0%, 100% { transform: translateY(0); }
    50%      { transform: translateY(-12px); }
  }

  /* Fluxo do tracejado ao redor das 4 elipses */
  .eco-dash {
    animation: eco-dash-flow 3s linear infinite;
  }
  @keyframes eco-dash-flow {
    to { stroke-dashoffset: -84; }
  }

  /* Respeita preferência por menos movimento */
  @media (prefers-reduced-motion: reduce) {
    .eco-diagrama, .eco-dash { animation: none; }
  }
</style>
<g class="eco-diagrama">
<ellipse cx="464.5" cy="396.5" rx="144.5" ry="143.5" fill="#E1E1E1" fill-opacity="0.2"/>
<ellipse cx="464.5" cy="396.5" rx="123.5" ry="122.5" fill="#E1E1E1" fill-opacity="0.46"/>
<ellipse cx="643" cy="396.5" rx="181" ry="179.5" fill="#E1E1E1" fill-opacity="0.42"/>
<ellipse cx="281" cy="396.5" rx="181" ry="179.5" fill="#E1E1E1" fill-opacity="0.42"/>
<ellipse cx="464" cy="584" rx="179" ry="181" transform="rotate(90 464 584)" fill="#E1E1E1" fill-opacity="0.42"/>
<ellipse cx="465" cy="224.5" rx="179.5" ry="181" transform="rotate(90 465 224.5)" fill="#E1E1E1" fill-opacity="0.42"/>
<path d="M665.494 385.299C662.086 385.299 660.106 383.734 660.106 380.51V378.875H663.1V380.303C663.1 381.96 663.859 382.605 665.218 382.605C666.577 382.605 667.198 381.799 667.198 380.349V368.536H670.537V380.372C670.537 383.181 668.902 385.299 665.494 385.299ZM683.078 385H680.062V383.618H679.992C679.187 384.701 678.265 385.322 676.608 385.322C673.982 385.322 672.509 383.641 672.509 381.062V373.187H675.617V380.533C675.617 381.914 676.239 382.674 677.575 382.674C679.048 382.674 679.946 381.569 679.946 380.003V373.187H683.078V385ZM688.12 373.187V375.076H688.189C688.903 373.74 689.709 373.049 691.091 373.049C691.436 373.049 691.643 373.072 691.827 373.141V375.881H691.758C689.709 375.674 688.235 376.756 688.235 379.243V385H685.104V373.187H688.12ZM693.176 385V373.187H696.308V385H693.176ZM698.426 368.467L695.94 371.714H693.499L694.765 368.467H698.426ZM702.747 385.345C699.777 385.345 697.75 382.928 697.75 379.105C697.75 375.421 699.846 372.865 702.793 372.865C704.451 372.865 705.487 373.625 706.132 374.615H706.201V368.536H709.333V385H706.316V383.457H706.27C705.579 384.586 704.405 385.345 702.747 385.345ZM703.438 382.72C705.303 382.72 706.27 381.339 706.27 379.174C706.27 376.918 705.533 375.398 703.53 375.398C701.803 375.398 700.928 376.918 700.928 379.105C700.928 381.385 701.826 382.72 703.438 382.72ZM711.368 385V373.187H714.5V385H711.368ZM711.368 371.345V368.536H714.5V371.345H711.368ZM721.998 385.345C718.268 385.345 715.942 382.628 715.942 379.105C715.942 375.582 718.245 372.865 721.837 372.865C724.9 372.865 726.788 374.638 727.202 377.194H724.14C723.932 376.158 723.126 375.375 721.975 375.375C720.087 375.375 719.12 376.826 719.12 379.105C719.12 381.339 720.018 382.835 721.929 382.835C723.196 382.835 724.094 382.168 724.301 380.832H727.317C727.11 383.342 725.153 385.345 721.998 385.345ZM734.279 385.345C730.617 385.345 728.108 382.628 728.108 379.105C728.108 375.582 730.617 372.865 734.279 372.865C737.94 372.865 740.45 375.582 740.45 379.105C740.45 382.628 737.94 385.345 734.279 385.345ZM734.279 382.951C736.19 382.951 737.272 381.408 737.272 379.105C737.272 376.803 736.19 375.237 734.279 375.237C732.344 375.237 731.285 376.803 731.285 379.105C731.285 381.408 732.344 382.951 734.279 382.951ZM751.323 385.345C747.408 385.345 745.198 382.605 745.198 379.082C745.198 375.582 747.569 372.865 751.023 372.865C754.823 372.865 756.849 375.766 756.849 379.98H748.283C748.513 381.799 749.527 382.928 751.3 382.928C752.52 382.928 753.234 382.375 753.579 381.477H756.665C756.227 383.572 754.362 385.299 751.323 385.345ZM751.069 375.283C749.412 375.283 748.606 376.273 748.329 377.816H753.579C753.487 376.319 752.497 375.283 751.069 375.283ZM657.583 400.187V402.076H657.652C658.366 400.74 659.172 400.049 660.553 400.049C660.899 400.049 661.106 400.072 661.29 400.141V402.881H661.221C659.172 402.674 657.698 403.756 657.698 406.243V412H654.566V400.187H657.583ZM667.851 412.345C663.937 412.345 661.726 409.605 661.726 406.082C661.726 402.582 664.098 399.865 667.552 399.865C671.351 399.865 673.378 402.766 673.378 406.98H664.812C665.042 408.799 666.055 409.928 667.828 409.928C669.049 409.928 669.763 409.375 670.108 408.477H673.193C672.756 410.572 670.891 412.345 667.851 412.345ZM667.598 402.283C665.94 402.283 665.134 403.273 664.858 404.816H670.108C670.016 403.319 669.026 402.283 667.598 402.283ZM680.031 416.03C676.807 416.03 674.827 414.648 674.505 412.345H677.613C677.867 413.082 678.534 413.658 679.985 413.658C681.758 413.658 682.61 412.806 682.61 411.194V409.905H682.541C681.85 410.687 680.952 411.286 679.455 411.286C676.83 411.286 674.251 409.214 674.251 405.645C674.251 402.122 676.37 399.865 679.363 399.865C680.837 399.865 681.919 400.441 682.633 401.431H682.679V400.187H685.696V411.102C685.696 412.76 685.166 413.888 684.291 414.694C683.301 415.615 681.781 416.03 680.031 416.03ZM679.985 408.776C681.965 408.776 682.771 407.326 682.771 405.576C682.771 403.849 681.85 402.375 679.962 402.375C678.373 402.375 677.314 403.618 677.314 405.599C677.314 407.602 678.373 408.776 679.985 408.776ZM698.189 412H695.173V410.618H695.104C694.298 411.701 693.377 412.322 691.719 412.322C689.094 412.322 687.62 410.641 687.62 408.062V400.187H690.729V407.533C690.729 408.914 691.35 409.674 692.686 409.674C694.16 409.674 695.058 408.569 695.058 407.003V400.187H698.189V412ZM700.261 412V395.536H703.393V412H700.261ZM712.892 412C712.708 411.77 712.593 411.217 712.523 410.687H712.477C711.879 411.586 711.027 412.276 709 412.276C706.583 412.276 704.879 411.01 704.879 408.661C704.879 406.059 706.997 405.23 709.622 404.862C711.579 404.585 712.477 404.424 712.477 403.526C712.477 402.674 711.81 402.122 710.497 402.122C709.023 402.122 708.31 402.651 708.217 403.78H705.431C705.523 401.707 707.066 399.888 710.52 399.888C714.066 399.888 715.494 401.477 715.494 404.24V410.25C715.494 411.148 715.632 411.678 715.908 411.885V412H712.892ZM709.76 410.089C711.556 410.089 712.546 408.984 712.546 407.832V406.059C711.994 406.382 711.142 406.566 710.359 406.75C708.724 407.118 707.918 407.487 707.918 408.592C707.918 409.697 708.655 410.089 709.76 410.089ZM716.569 402.26V400.187H718.204V396.503H721.267V400.187H723.293V402.26H721.267V408.523C721.267 409.398 721.75 409.697 722.441 409.697C722.832 409.697 723.362 409.674 723.362 409.674V411.977C723.362 411.977 722.648 412.023 721.405 412.023C719.885 412.023 718.204 411.424 718.204 409.191V402.26H716.569ZM730.388 412.345C726.727 412.345 724.217 409.628 724.217 406.105C724.217 402.582 726.727 399.865 730.388 399.865C734.05 399.865 736.56 402.582 736.56 406.105C736.56 409.628 734.05 412.345 730.388 412.345ZM730.388 409.951C732.3 409.951 733.382 408.408 733.382 406.105C733.382 403.803 732.3 402.237 730.388 402.237C728.454 402.237 727.395 403.803 727.395 406.105C727.395 408.408 728.454 409.951 730.388 409.951ZM734.073 395.467L731.586 398.714H729.145L730.412 395.467H734.073ZM741.032 400.187V402.076H741.101C741.815 400.74 742.621 400.049 744.002 400.049C744.348 400.049 744.555 400.072 744.739 400.141V402.881H744.67C742.621 402.674 741.147 403.756 741.147 406.243V412H738.015V400.187H741.032ZM746.088 412V400.187H749.22V412H746.088ZM746.088 398.345V395.536H749.22V398.345H746.088ZM756.833 412.345C753.172 412.345 750.662 409.628 750.662 406.105C750.662 402.582 753.172 399.865 756.833 399.865C760.494 399.865 763.004 402.582 763.004 406.105C763.004 409.628 760.494 412.345 756.833 412.345ZM756.833 409.951C758.744 409.951 759.827 408.408 759.827 406.105C759.827 403.803 758.744 402.237 756.833 402.237C754.899 402.237 753.84 403.803 753.84 406.105C753.84 408.408 754.899 409.951 756.833 409.951Z" fill="black"/>
<path d="M400.026 655.345C395.398 655.345 392.105 651.776 392.105 646.826C392.105 641.944 395.145 638.214 400.003 638.214C404.056 638.214 406.451 640.631 406.796 643.763H403.48C403.181 642.105 401.937 641.023 400.003 641.023C396.964 641.023 395.513 643.556 395.513 646.826C395.513 650.187 397.263 652.605 400.026 652.605C401.984 652.605 403.365 651.431 403.572 649.704H406.842C406.75 651.155 406.128 652.559 405.023 653.595C403.895 654.655 402.306 655.345 400.026 655.345ZM411.323 643.187V645.076H411.392C412.106 643.74 412.912 643.049 414.293 643.049C414.639 643.049 414.846 643.072 415.03 643.141V645.881H414.961C412.912 645.674 411.438 646.756 411.438 649.243V655H408.306V643.187H411.323ZM421.591 655.345C417.677 655.345 415.466 652.605 415.466 649.082C415.466 645.582 417.838 642.865 421.292 642.865C425.091 642.865 427.118 645.766 427.118 649.98H418.552C418.782 651.799 419.795 652.928 421.568 652.928C422.789 652.928 423.503 652.375 423.848 651.477H426.934C426.496 653.572 424.631 655.345 421.591 655.345ZM421.338 645.283C419.68 645.283 418.874 646.273 418.598 647.816H423.848C423.756 646.319 422.766 645.283 421.338 645.283ZM433.357 655.345C429.926 655.345 428.015 653.687 427.83 651.178H430.732C430.939 652.536 431.906 653.135 433.311 653.135C434.692 653.135 435.475 652.605 435.475 651.776C435.475 650.648 433.978 650.533 432.367 650.21C430.248 649.796 428.176 649.22 428.176 646.641C428.176 644.085 430.294 642.865 432.988 642.865C436.097 642.865 437.824 644.408 438.054 646.78H435.222C435.084 645.513 434.278 645.053 432.942 645.053C431.722 645.053 430.916 645.513 430.916 646.365C430.916 647.378 432.482 647.47 434.163 647.816C436.143 648.23 438.33 648.783 438.33 651.546C438.33 653.918 436.304 655.345 433.357 655.345ZM445.336 655.345C441.606 655.345 439.28 652.628 439.28 649.105C439.28 645.582 441.583 642.865 445.175 642.865C448.237 642.865 450.125 644.638 450.54 647.194H447.477C447.27 646.158 446.464 645.375 445.313 645.375C443.425 645.375 442.458 646.826 442.458 649.105C442.458 651.339 443.356 652.835 445.267 652.835C446.533 652.835 447.431 652.168 447.639 650.832H450.655C450.448 653.342 448.491 655.345 445.336 655.345ZM452.021 655V643.187H455.153V655H452.021ZM452.021 641.345V638.536H455.153V641.345H452.021ZM457.171 655V643.187H460.187V644.776H460.256C460.901 643.694 462.052 642.865 463.687 642.865C465.184 642.865 466.381 643.694 466.957 644.937H467.003C467.809 643.648 469.052 642.865 470.549 642.865C473.036 642.865 474.44 644.477 474.44 647.056V655H471.309V647.585C471.309 646.25 470.641 645.559 469.49 645.559C468.177 645.559 467.371 646.572 467.371 648.138V655H464.24V647.585C464.24 646.25 463.572 645.559 462.421 645.559C461.154 645.559 460.302 646.572 460.302 648.138V655H457.171ZM481.924 655.345C478.009 655.345 475.799 652.605 475.799 649.082C475.799 645.582 478.17 642.865 481.624 642.865C485.424 642.865 487.45 645.766 487.45 649.98H478.884C479.115 651.799 480.128 652.928 481.901 652.928C483.121 652.928 483.835 652.375 484.18 651.477H487.266C486.828 653.572 484.963 655.345 481.924 655.345ZM481.67 645.283C480.013 645.283 479.207 646.273 478.93 647.816H484.18C484.088 646.319 483.098 645.283 481.67 645.283ZM491.962 643.187V644.799H492.031C492.837 643.533 493.919 642.865 495.531 642.865C497.972 642.865 499.607 644.707 499.607 647.286V655H496.475V647.747C496.475 646.48 495.738 645.582 494.426 645.582C493.044 645.582 492.031 646.687 492.031 648.299V655H488.9V643.187H491.962ZM500.622 645.26V643.187H502.256V639.503H505.319V643.187H507.345V645.26H505.319V651.523C505.319 652.398 505.803 652.697 506.493 652.697C506.885 652.697 507.414 652.674 507.414 652.674V654.977C507.414 654.977 506.701 655.023 505.457 655.023C503.937 655.023 502.256 654.424 502.256 652.191V645.26H500.622ZM514.441 655.345C510.78 655.345 508.27 652.628 508.27 649.105C508.27 645.582 510.78 642.865 514.441 642.865C518.102 642.865 520.612 645.582 520.612 649.105C520.612 652.628 518.102 655.345 514.441 655.345ZM514.441 652.951C516.352 652.951 517.434 651.408 517.434 649.105C517.434 646.803 516.352 645.237 514.441 645.237C512.507 645.237 511.447 646.803 511.447 649.105C511.447 651.408 512.507 652.951 514.441 652.951ZM531.485 655.345C527.57 655.345 525.36 652.605 525.36 649.082C525.36 645.582 527.732 642.865 531.186 642.865C534.985 642.865 537.011 645.766 537.011 649.98H528.445C528.676 651.799 529.689 652.928 531.462 652.928C532.682 652.928 533.396 652.375 533.742 651.477H536.827C536.39 653.572 534.524 655.345 531.485 655.345ZM531.232 645.283C529.574 645.283 528.768 646.273 528.491 647.816H533.742C533.649 646.319 532.659 645.283 531.232 645.283ZM414.67 682V670.187H417.687V671.776H417.756C418.401 670.694 419.552 669.865 421.187 669.865C422.684 669.865 423.881 670.694 424.457 671.937H424.503C425.309 670.648 426.552 669.865 428.049 669.865C430.536 669.865 431.94 671.477 431.94 674.056V682H428.809V674.585C428.809 673.25 428.141 672.559 426.989 672.559C425.677 672.559 424.871 673.572 424.871 675.138V682H421.739V674.585C421.739 673.25 421.072 672.559 419.92 672.559C418.654 672.559 417.802 673.572 417.802 675.138V682H414.67ZM441.312 682C441.127 681.77 441.012 681.217 440.943 680.687H440.897C440.299 681.586 439.447 682.276 437.42 682.276C435.002 682.276 433.298 681.01 433.298 678.661C433.298 676.059 435.417 675.23 438.042 674.862C439.999 674.585 440.897 674.424 440.897 673.526C440.897 672.674 440.229 672.122 438.917 672.122C437.443 672.122 436.729 672.651 436.637 673.78H433.851C433.943 671.707 435.486 669.888 438.94 669.888C442.486 669.888 443.914 671.477 443.914 674.24V680.25C443.914 681.148 444.052 681.678 444.328 681.885V682H441.312ZM438.18 680.089C439.976 680.089 440.966 678.984 440.966 677.832V676.059C440.414 676.382 439.562 676.566 438.779 676.75C437.144 677.118 436.338 677.487 436.338 678.592C436.338 679.697 437.075 680.089 438.18 680.089ZM448.921 670.187V672.076H448.99C449.704 670.74 450.51 670.049 451.891 670.049C452.237 670.049 452.444 670.072 452.628 670.141V672.881H452.559C450.51 672.674 449.036 673.756 449.036 676.243V682H445.905V670.187H448.921ZM461.76 682L458.445 676.612L457.086 678.016V682H453.977V665.536H457.086V674.655L461.277 670.187H465.03L460.678 674.678L465.56 682H461.76ZM471.287 682.345C467.373 682.345 465.162 679.605 465.162 676.082C465.162 672.582 467.534 669.865 470.988 669.865C474.787 669.865 476.814 672.766 476.814 676.98H468.248C468.478 678.799 469.491 679.928 471.264 679.928C472.485 679.928 473.199 679.375 473.544 678.477H476.63C476.192 680.572 474.327 682.345 471.287 682.345ZM471.034 672.283C469.376 672.283 468.57 673.273 468.294 674.816H473.544C473.452 673.319 472.462 672.283 471.034 672.283ZM477.348 672.26V670.187H478.982V666.503H482.045V670.187H484.071V672.26H482.045V678.523C482.045 679.398 482.529 679.697 483.219 679.697C483.611 679.697 484.14 679.674 484.14 679.674V681.977C484.14 681.977 483.427 682.023 482.183 682.023C480.663 682.023 478.982 681.424 478.982 679.191V672.26H477.348ZM485.684 682V670.187H488.816V682H485.684ZM485.684 668.345V665.536H488.816V668.345H485.684ZM493.896 670.187V671.799H493.965C494.771 670.533 495.853 669.865 497.465 669.865C499.906 669.865 501.541 671.707 501.541 674.286V682H498.409V674.747C498.409 673.48 497.672 672.582 496.36 672.582C494.978 672.582 493.965 673.687 493.965 675.299V682H490.833V670.187H493.896ZM508.675 686.03C505.451 686.03 503.471 684.648 503.149 682.345H506.257C506.511 683.082 507.178 683.658 508.629 683.658C510.402 683.658 511.254 682.806 511.254 681.194V679.905H511.185C510.494 680.687 509.596 681.286 508.099 681.286C505.474 681.286 502.895 679.214 502.895 675.645C502.895 672.122 505.014 669.865 508.007 669.865C509.481 669.865 510.563 670.441 511.277 671.431H511.323V670.187H514.34V681.102C514.34 682.76 513.81 683.888 512.935 684.694C511.945 685.615 510.425 686.03 508.675 686.03ZM508.629 678.776C510.609 678.776 511.415 677.326 511.415 675.576C511.415 673.849 510.494 672.375 508.606 672.375C507.017 672.375 505.958 673.618 505.958 675.599C505.958 677.602 507.017 678.776 508.629 678.776Z" fill="black"/>
<path d="M403.699 164L403.584 161.789H403.538C402.41 163.678 400.867 164.345 398.909 164.345C396.423 164.345 394.488 163.447 393.13 161.951C391.771 160.431 390.988 158.312 390.988 155.826C390.988 153.085 391.955 150.691 393.682 149.102C395.018 147.881 396.768 147.214 398.979 147.214C403.123 147.214 405.495 149.493 406.025 152.717H402.755C402.386 151.128 401.166 149.977 399.048 149.977C395.939 149.977 394.396 152.556 394.396 155.826C394.396 159.187 396.169 161.651 399.002 161.651C401.558 161.651 403.238 159.74 403.238 157.921V157.829H399.278V155.25H406.209V164H403.699ZM413.839 164.345C409.925 164.345 407.714 161.605 407.714 158.082C407.714 154.582 410.086 151.865 413.54 151.865C417.339 151.865 419.366 154.766 419.366 158.98H410.8C411.03 160.799 412.043 161.928 413.816 161.928C415.037 161.928 415.751 161.375 416.096 160.477H419.182C418.744 162.572 416.879 164.345 413.839 164.345ZM413.586 154.283C411.928 154.283 411.122 155.273 410.846 156.816H416.096C416.004 155.319 415.014 154.283 413.586 154.283ZM425.605 164.345C422.174 164.345 420.263 162.687 420.078 160.178H422.98C423.187 161.536 424.154 162.135 425.559 162.135C426.94 162.135 427.723 161.605 427.723 160.776C427.723 159.648 426.226 159.533 424.615 159.21C422.496 158.796 420.424 158.22 420.424 155.641C420.424 153.085 422.542 151.865 425.236 151.865C428.345 151.865 430.072 153.408 430.302 155.78H427.47C427.332 154.513 426.526 154.053 425.19 154.053C423.97 154.053 423.164 154.513 423.164 155.365C423.164 156.378 424.73 156.47 426.411 156.816C428.391 157.23 430.578 157.783 430.578 160.546C430.578 162.918 428.552 164.345 425.605 164.345ZM431.075 154.26V152.187H432.71V148.503H435.773V152.187H437.799V154.26H435.773V160.523C435.773 161.398 436.256 161.697 436.947 161.697C437.339 161.697 437.868 161.674 437.868 161.674V163.977C437.868 163.977 437.154 164.023 435.911 164.023C434.391 164.023 432.71 163.424 432.71 161.191V154.26H431.075ZM446.962 164C446.778 163.77 446.663 163.217 446.593 162.687H446.547C445.949 163.586 445.097 164.276 443.07 164.276C440.653 164.276 438.949 163.01 438.949 160.661C438.949 158.059 441.067 157.23 443.692 156.862C445.649 156.585 446.547 156.424 446.547 155.526C446.547 154.674 445.88 154.122 444.567 154.122C443.093 154.122 442.38 154.651 442.287 155.78H439.501C439.593 153.707 441.136 151.888 444.59 151.888C448.136 151.888 449.564 153.477 449.564 156.24V162.25C449.564 163.148 449.702 163.678 449.978 163.885V164H446.962ZM443.83 162.089C445.626 162.089 446.616 160.984 446.616 159.832V158.059C446.064 158.382 445.212 158.566 444.429 158.75C442.794 159.118 441.988 159.487 441.988 160.592C441.988 161.697 442.725 162.089 443.83 162.089ZM445.949 150.76C444.843 150.76 444.06 150 443.439 150C443.116 150 442.886 150.276 442.817 150.714H441.159C441.159 148.918 442.08 147.997 443.232 147.997C444.36 147.997 445.12 148.802 445.741 148.802C446.179 148.802 446.317 148.526 446.409 148.089H448.067C448.067 149.654 447.284 150.76 445.949 150.76ZM457.15 164.345C453.489 164.345 450.979 161.628 450.979 158.105C450.979 154.582 453.489 151.865 457.15 151.865C460.811 151.865 463.321 154.582 463.321 158.105C463.321 161.628 460.811 164.345 457.15 164.345ZM457.15 161.951C459.061 161.951 460.144 160.408 460.144 158.105C460.144 155.803 459.061 154.237 457.15 154.237C455.216 154.237 454.157 155.803 454.157 158.105C454.157 160.408 455.216 161.951 457.15 161.951ZM474.194 164.345C470.28 164.345 468.069 161.605 468.069 158.082C468.069 154.582 470.441 151.865 473.895 151.865C477.694 151.865 479.721 154.766 479.721 158.98H471.155C471.385 160.799 472.398 161.928 474.171 161.928C475.392 161.928 476.105 161.375 476.451 160.477H479.536C479.099 162.572 477.234 164.345 474.194 164.345ZM473.941 154.283C472.283 154.283 471.477 155.273 471.201 156.816H476.451C476.359 155.319 475.369 154.283 473.941 154.283ZM484.278 154.352V152.187H485.89V151.128C485.89 148.25 488.123 147.237 491.14 147.559V149.977C489.666 149.908 489.021 150.092 489.021 151.312V152.187H491.14V154.352H489.021V164H485.89V154.352H484.278ZM492.544 164V152.187H495.676V164H492.544ZM492.544 150.345V147.536H495.676V150.345H492.544ZM502.487 164.345C499.056 164.345 497.145 162.687 496.961 160.178H499.862C500.07 161.536 501.037 162.135 502.441 162.135C503.823 162.135 504.606 161.605 504.606 160.776C504.606 159.648 503.109 159.533 501.497 159.21C499.379 158.796 497.306 158.22 497.306 155.641C497.306 153.085 499.425 151.865 502.119 151.865C505.228 151.865 506.955 153.408 507.185 155.78H504.353C504.214 154.513 503.408 154.053 502.073 154.053C500.853 154.053 500.047 154.513 500.047 155.365C500.047 156.378 501.612 156.47 503.293 156.816C505.274 157.23 507.461 157.783 507.461 160.546C507.461 162.918 505.435 164.345 502.487 164.345ZM514.467 164.345C510.736 164.345 508.411 161.628 508.411 158.105C508.411 154.582 510.713 151.865 514.305 151.865C517.368 151.865 519.256 153.638 519.671 156.194H516.608C516.401 155.158 515.595 154.375 514.444 154.375C512.555 154.375 511.588 155.826 511.588 158.105C511.588 160.339 512.486 161.835 514.398 161.835C515.664 161.835 516.562 161.168 516.769 159.832H519.786C519.579 162.342 517.621 164.345 514.467 164.345ZM528.814 164C528.63 163.77 528.515 163.217 528.446 162.687H528.4C527.801 163.586 526.949 164.276 524.923 164.276C522.505 164.276 520.801 163.01 520.801 160.661C520.801 158.059 522.919 157.23 525.544 156.862C527.502 156.585 528.4 156.424 528.4 155.526C528.4 154.674 527.732 154.122 526.419 154.122C524.946 154.122 524.232 154.651 524.14 155.78H521.354C521.446 153.707 522.988 151.888 526.442 151.888C529.989 151.888 531.416 153.477 531.416 156.24V162.25C531.416 163.148 531.554 163.678 531.831 163.885V164H528.814ZM525.683 162.089C527.479 162.089 528.469 160.984 528.469 159.832V158.059C527.916 158.382 527.064 158.566 526.281 158.75C524.646 159.118 523.84 159.487 523.84 160.592C523.84 161.697 524.577 162.089 525.683 162.089ZM533.453 164V147.536H536.585V164H533.453Z" fill="black"/>
<path d="M157.353 385V368.536H163.777C168.175 368.536 171.007 372.082 171.007 376.941C171.007 379.612 170.109 381.96 168.382 383.411C167.162 384.424 165.573 385 163.501 385H157.353ZM160.692 382.122H163.27C166.402 382.122 167.623 380.21 167.623 376.941C167.623 373.671 166.195 371.391 163.363 371.391H160.692V382.122ZM178.166 385.345C174.505 385.345 171.995 382.628 171.995 379.105C171.995 375.582 174.505 372.865 178.166 372.865C181.827 372.865 184.337 375.582 184.337 379.105C184.337 382.628 181.827 385.345 178.166 385.345ZM178.166 382.951C180.077 382.951 181.159 381.408 181.159 379.105C181.159 376.803 180.077 375.237 178.166 375.237C176.232 375.237 175.172 376.803 175.172 379.105C175.172 381.408 176.232 382.951 178.166 382.951ZM191.273 385.345C187.543 385.345 185.217 382.628 185.217 379.105C185.217 375.582 187.52 372.865 191.112 372.865C194.174 372.865 196.063 374.638 196.477 377.194H193.414C193.207 376.158 192.401 375.375 191.25 375.375C189.362 375.375 188.395 376.826 188.395 379.105C188.395 381.339 189.293 382.835 191.204 382.835C192.47 382.835 193.368 382.168 193.576 380.832H196.592C196.385 383.342 194.428 385.345 191.273 385.345ZM208.435 385H205.419V383.618H205.35C204.544 384.701 203.623 385.322 201.965 385.322C199.34 385.322 197.866 383.641 197.866 381.062V373.187H200.975V380.533C200.975 381.914 201.596 382.674 202.932 382.674C204.406 382.674 205.304 381.569 205.304 380.003V373.187H208.435V385ZM210.461 385V373.187H213.477V374.776H213.546C214.191 373.694 215.342 372.865 216.977 372.865C218.474 372.865 219.671 373.694 220.247 374.937H220.293C221.099 373.648 222.343 372.865 223.839 372.865C226.326 372.865 227.731 374.477 227.731 377.056V385H224.599V377.585C224.599 376.25 223.931 375.559 222.78 375.559C221.468 375.559 220.662 376.572 220.662 378.138V385H217.53V377.585C217.53 376.25 216.862 375.559 215.711 375.559C214.444 375.559 213.592 376.572 213.592 378.138V385H210.461ZM235.214 385.345C231.3 385.345 229.089 382.605 229.089 379.082C229.089 375.582 231.461 372.865 234.915 372.865C238.714 372.865 240.74 375.766 240.74 379.98H232.175C232.405 381.799 233.418 382.928 235.191 382.928C236.411 382.928 237.125 382.375 237.471 381.477H240.556C240.119 383.572 238.254 385.345 235.214 385.345ZM234.961 375.283C233.303 375.283 232.497 376.273 232.221 377.816H237.471C237.379 376.319 236.388 375.283 234.961 375.283ZM245.252 373.187V374.799H245.321C246.127 373.533 247.21 372.865 248.821 372.865C251.262 372.865 252.897 374.707 252.897 377.286V385H249.766V377.747C249.766 376.48 249.029 375.582 247.716 375.582C246.335 375.582 245.321 376.687 245.321 378.299V385H242.19V373.187H245.252ZM253.912 375.26V373.187H255.547V369.503H258.609V373.187H260.636V375.26H258.609V381.523C258.609 382.398 259.093 382.697 259.784 382.697C260.175 382.697 260.705 382.674 260.705 382.674V384.977C260.705 384.977 259.991 385.023 258.747 385.023C257.228 385.023 255.547 384.424 255.547 382.191V375.26H253.912ZM267.731 385.345C264.07 385.345 261.56 382.628 261.56 379.105C261.56 375.582 264.07 372.865 267.731 372.865C271.392 372.865 273.902 375.582 273.902 379.105C273.902 382.628 271.392 385.345 267.731 385.345ZM267.731 382.951C269.642 382.951 270.725 381.408 270.725 379.105C270.725 376.803 269.642 375.237 267.731 375.237C265.797 375.237 264.738 376.803 264.738 379.105C264.738 381.408 265.797 382.951 267.731 382.951ZM280.148 385.345C276.717 385.345 274.805 383.687 274.621 381.178H277.523C277.73 382.536 278.697 383.135 280.102 383.135C281.483 383.135 282.266 382.605 282.266 381.776C282.266 380.648 280.769 380.533 279.157 380.21C277.039 379.796 274.967 379.22 274.967 376.641C274.967 374.085 277.085 372.865 279.779 372.865C282.888 372.865 284.615 374.408 284.845 376.78H282.013C281.875 375.513 281.069 375.053 279.733 375.053C278.513 375.053 277.707 375.513 277.707 376.365C277.707 377.378 279.273 377.47 280.953 377.816C282.934 378.23 285.121 378.783 285.121 381.546C285.121 383.918 283.095 385.345 280.148 385.345ZM295.951 385.345C292.037 385.345 289.826 382.605 289.826 379.082C289.826 375.582 292.198 372.865 295.652 372.865C299.451 372.865 301.478 375.766 301.478 379.98H292.912C293.142 381.799 294.155 382.928 295.928 382.928C297.149 382.928 297.862 382.375 298.208 381.477H301.293C300.856 383.572 298.991 385.345 295.951 385.345ZM295.698 375.283C294.04 375.283 293.234 376.273 292.958 377.816H298.208C298.116 376.319 297.126 375.283 295.698 375.283ZM176.746 412.345C173.016 412.345 170.69 409.628 170.69 406.105C170.69 402.582 172.993 399.865 176.585 399.865C179.648 399.865 181.536 401.638 181.95 404.194H178.888C178.681 403.158 177.875 402.375 176.723 402.375C174.835 402.375 173.868 403.826 173.868 406.105C173.868 408.339 174.766 409.835 176.677 409.835C177.944 409.835 178.842 409.168 179.049 407.832H182.066C181.858 410.342 179.901 412.345 176.746 412.345ZM189.027 412.345C185.366 412.345 182.856 409.628 182.856 406.105C182.856 402.582 185.366 399.865 189.027 399.865C192.688 399.865 195.198 402.582 195.198 406.105C195.198 409.628 192.688 412.345 189.027 412.345ZM189.027 409.951C190.938 409.951 192.02 408.408 192.02 406.105C192.02 403.803 190.938 402.237 189.027 402.237C187.093 402.237 186.034 403.803 186.034 406.105C186.034 408.408 187.093 409.951 189.027 409.951ZM196.654 412V400.187H199.67V401.776H199.739C200.384 400.694 201.535 399.865 203.17 399.865C204.667 399.865 205.864 400.694 206.44 401.937H206.486C207.292 400.648 208.536 399.865 210.032 399.865C212.519 399.865 213.924 401.477 213.924 404.056V412H210.792V404.585C210.792 403.25 210.124 402.559 208.973 402.559C207.661 402.559 206.855 403.572 206.855 405.138V412H203.723V404.585C203.723 403.25 203.055 402.559 201.904 402.559C200.637 402.559 199.785 403.572 199.785 405.138V412H196.654ZM215.858 415.868V400.187H218.874V401.661H218.943C219.703 400.625 220.808 399.865 222.42 399.865C225.552 399.865 227.555 402.421 227.555 406.105C227.555 409.928 225.483 412.345 222.443 412.345C220.785 412.345 219.703 411.678 219.035 410.664H218.989V415.868H215.858ZM221.775 409.743C223.364 409.743 224.378 408.431 224.378 406.197C224.378 403.964 223.595 402.398 221.66 402.398C219.703 402.398 218.92 404.079 218.92 406.197C218.92 408.339 219.91 409.743 221.775 409.743ZM229.059 412V395.536H232.19V412H229.059ZM234.252 412V400.187H237.384V412H234.252ZM234.252 398.345V395.536H237.384V398.345H234.252ZM246.839 412C246.655 411.77 246.54 411.217 246.471 410.687H246.425C245.826 411.586 244.974 412.276 242.948 412.276C240.53 412.276 238.826 411.01 238.826 408.661C238.826 406.059 240.944 405.23 243.569 404.862C245.527 404.585 246.425 404.424 246.425 403.526C246.425 402.674 245.757 402.122 244.444 402.122C242.971 402.122 242.257 402.651 242.165 403.78H239.378C239.471 401.707 241.013 399.888 244.467 399.888C248.013 399.888 249.441 401.477 249.441 404.24V410.25C249.441 411.148 249.579 411.678 249.856 411.885V412H246.839ZM243.707 410.089C245.504 410.089 246.494 408.984 246.494 407.832V406.059C245.941 406.382 245.089 406.566 244.306 406.75C242.671 407.118 241.865 407.487 241.865 408.592C241.865 409.697 242.602 410.089 243.707 410.089ZM254.494 400.187V401.799H254.564C255.37 400.533 256.452 399.865 258.064 399.865C260.504 399.865 262.139 401.707 262.139 404.286V412H259.008V404.747C259.008 403.48 258.271 402.582 256.958 402.582C255.577 402.582 254.564 403.687 254.564 405.299V412H251.432V400.187H254.494ZM269.55 412.345C265.82 412.345 263.494 409.628 263.494 406.105C263.494 402.582 265.797 399.865 269.389 399.865C272.451 399.865 274.339 401.638 274.754 404.194H271.691C271.484 403.158 270.678 402.375 269.527 402.375C267.639 402.375 266.672 403.826 266.672 406.105C266.672 408.339 267.57 409.835 269.481 409.835C270.747 409.835 271.645 409.168 271.853 407.832H274.869C274.662 410.342 272.705 412.345 269.55 412.345ZM281.784 412.345C277.87 412.345 275.659 409.605 275.659 406.082C275.659 402.582 278.031 399.865 281.485 399.865C285.284 399.865 287.311 402.766 287.311 406.98H278.745C278.975 408.799 279.988 409.928 281.761 409.928C282.982 409.928 283.696 409.375 284.041 408.477H287.127C286.689 410.572 284.824 412.345 281.784 412.345ZM281.531 402.283C279.873 402.283 279.067 403.273 278.791 404.816H284.041C283.949 403.319 282.959 402.283 281.531 402.283Z" fill="black"/>
<ellipse cx="464.5" cy="396" rx="108.5" ry="108" fill="#E1E1E1"/>
<path d="M356.972 409V383.076H363.39V409H356.972ZM366.957 409V383.076H373.41L381.097 396.092L382.874 399.392H382.946C382.898 397.313 382.874 395.971 382.874 395.367V383.076H389.146V409H382.693L375.078 396.165L373.229 392.684H373.157C373.205 394.908 373.229 396.322 373.229 396.926V409H366.957ZM399.116 403.598H402.887C404.966 403.598 406.549 402.969 407.637 401.712C408.724 400.431 409.268 398.594 409.268 396.201C409.268 393.808 408.712 391.922 407.6 390.545C406.488 389.143 404.941 388.442 402.959 388.442H399.116V403.598ZM392.698 409V383.076H403.757C407.359 383.076 410.259 384.272 412.459 386.665C414.659 389.058 415.758 392.237 415.758 396.201C415.758 400.866 414.26 404.347 411.262 406.643C409.159 408.214 406.525 409 403.358 409H392.698ZM418.299 409V383.076H424.717V409H418.299ZM440.031 409.58C436.26 409.58 433.178 408.323 430.785 405.809C428.417 403.271 427.232 400.044 427.232 396.128C427.232 392.213 428.404 388.973 430.749 386.411C433.094 383.849 436.176 382.568 439.995 382.568C442.944 382.568 445.409 383.329 447.392 384.852C449.64 386.544 450.933 388.925 451.271 391.995H444.854C444.684 390.811 444.165 389.832 443.294 389.058C442.424 388.285 441.312 387.898 439.959 387.898C437.928 387.898 436.381 388.659 435.318 390.182C434.278 391.681 433.759 393.663 433.759 396.128C433.759 398.546 434.327 400.516 435.463 402.038C436.599 403.561 438.11 404.323 439.995 404.323C441.397 404.323 442.545 403.924 443.439 403.126C444.358 402.329 444.89 401.289 445.035 400.008H451.452C451.259 402.619 450.22 404.83 448.334 406.643C446.304 408.601 443.536 409.58 440.031 409.58ZM451.009 409L460.327 383.076H466.926L476.28 409H469.536L468.014 404.323H458.949L457.463 409H451.009ZM460.436 399.718H466.527L464.569 393.445L463.554 389.783H463.481C463.07 391.33 462.72 392.551 462.43 393.445L460.436 399.718ZM484.521 403.598H488.291C490.37 403.598 491.954 402.969 493.041 401.712C494.129 400.431 494.673 398.594 494.673 396.201C494.673 393.808 494.117 391.922 493.005 390.545C491.893 389.143 490.346 388.442 488.364 388.442H484.521V403.598ZM478.103 409V383.076H489.162C492.763 383.076 495.664 384.272 497.864 386.665C500.063 389.058 501.163 392.237 501.163 396.201C501.163 400.866 499.664 404.347 496.667 406.643C494.564 408.214 491.929 409 488.763 409H478.103ZM515.452 404.395C517.482 404.395 519.029 403.634 520.093 402.111C521.18 400.564 521.724 398.558 521.724 396.092C521.724 393.627 521.18 391.62 520.093 390.073C519.029 388.526 517.482 387.753 515.452 387.753C513.445 387.753 511.886 388.526 510.774 390.073C509.687 391.62 509.143 393.627 509.143 396.092C509.143 398.534 509.687 400.528 510.774 402.075C511.886 403.622 513.445 404.395 515.452 404.395ZM524.734 405.809C522.389 408.347 519.283 409.616 515.415 409.616C511.548 409.616 508.442 408.347 506.097 405.809C503.777 403.271 502.616 400.032 502.616 396.092C502.616 392.152 503.777 388.913 506.097 386.375C508.442 383.837 511.548 382.568 515.415 382.568C519.283 382.568 522.389 383.837 524.734 386.375C527.078 388.913 528.251 392.152 528.251 396.092C528.251 400.032 527.078 403.271 524.734 405.809ZM530.755 409V383.076H543.155C545.814 383.076 547.99 383.74 549.682 385.07C551.374 386.375 552.22 388.2 552.22 390.545C552.22 393.687 550.721 395.778 547.724 396.817V396.926C549.899 397.651 551.156 399.235 551.495 401.676C551.64 402.522 551.736 403.573 551.785 404.83C551.857 406.063 551.942 406.994 552.039 407.622C552.135 408.226 552.316 408.577 552.582 408.674V409H546.346C546.153 408.879 545.995 408.529 545.875 407.949C545.778 407.368 545.693 406.547 545.621 405.483C545.548 404.419 545.464 403.585 545.367 402.981C545.029 400.516 543.59 399.283 541.052 399.283H537.173V409H530.755ZM537.173 394.533H541.995C543.252 394.533 544.207 394.255 544.859 393.699C545.512 393.143 545.838 392.37 545.838 391.379C545.838 390.412 545.524 389.638 544.896 389.058C544.267 388.454 543.349 388.152 542.14 388.152H537.173V394.533ZM561.027 406.136V399.428H554.754V394.678H561.027V388.007H566.103V394.678H572.376V399.428H566.103V406.136H561.027Z" fill="#6C00FF"/>
<path class="eco-dash" d="M639 619C763.264 619 864 519.383 864 396.5C864 273.617 763.264 174 639 174" stroke="#C4C4C4" stroke-opacity="0.38" stroke-width="2" stroke-dasharray="42 42"/>
<path d="M853.266 295V278.536H860.819C863.997 278.536 866.115 280.378 866.115 283.118C866.115 285.053 865.217 286.526 863.099 287.102V287.171C864.619 287.608 865.401 288.483 865.609 290.487C865.839 292.812 865.747 294.586 866.323 294.839V295H863.122C862.707 294.816 862.661 292.974 862.523 291.201C862.385 289.405 861.372 288.391 859.299 288.391H856.605V295H853.266ZM856.605 281.23V285.812H860.151C861.971 285.812 862.869 284.868 862.869 283.556C862.869 282.22 862.017 281.23 860.244 281.23H856.605ZM873.449 295.345C869.534 295.345 867.324 292.605 867.324 289.082C867.324 285.582 869.696 282.865 873.15 282.865C876.949 282.865 878.975 285.766 878.975 289.98H870.409C870.64 291.799 871.653 292.928 873.426 292.928C874.646 292.928 875.36 292.375 875.706 291.477H878.791C878.354 293.572 876.488 295.345 873.449 295.345ZM873.196 285.283C871.538 285.283 870.732 286.273 870.455 287.816H875.706C875.613 286.319 874.623 285.283 873.196 285.283ZM885.629 299.03C882.405 299.03 880.425 297.648 880.102 295.345H883.211C883.464 296.082 884.132 296.658 885.583 296.658C887.356 296.658 888.208 295.806 888.208 294.194V292.905H888.139C887.448 293.687 886.55 294.286 885.053 294.286C882.428 294.286 879.849 292.214 879.849 288.645C879.849 285.122 881.968 282.865 884.961 282.865C886.435 282.865 887.517 283.441 888.231 284.431H888.277V283.187H891.293V294.102C891.293 295.76 890.764 296.888 889.889 297.694C888.899 298.615 887.379 299.03 885.629 299.03ZM885.583 291.776C887.563 291.776 888.369 290.326 888.369 288.576C888.369 286.849 887.448 285.375 885.56 285.375C883.971 285.375 882.912 286.618 882.912 288.599C882.912 290.602 883.971 291.776 885.583 291.776ZM893.31 295V283.187H896.441V295H893.31ZM893.31 281.345V278.536H896.441V281.345H893.31ZM903.249 295.345C899.818 295.345 897.907 293.687 897.722 291.178H900.624C900.831 292.536 901.798 293.135 903.203 293.135C904.584 293.135 905.367 292.605 905.367 291.776C905.367 290.648 903.87 290.533 902.259 290.21C900.14 289.796 898.068 289.22 898.068 286.641C898.068 284.085 900.186 282.865 902.88 282.865C905.989 282.865 907.716 284.408 907.946 286.78H905.114C904.976 285.513 904.17 285.053 902.834 285.053C901.614 285.053 900.808 285.513 900.808 286.365C900.808 287.378 902.374 287.47 904.055 287.816C906.035 288.23 908.223 288.783 908.223 291.546C908.223 293.918 906.196 295.345 903.249 295.345ZM908.72 285.26V283.187H910.354V279.503H913.417V283.187H915.443V285.26H913.417V291.523C913.417 292.398 913.901 292.697 914.591 292.697C914.983 292.697 915.512 292.674 915.512 292.674V294.977C915.512 294.977 914.799 295.023 913.555 295.023C912.035 295.023 910.354 294.424 910.354 292.191V285.26H908.72ZM920.072 283.187V285.076H920.141C920.855 283.74 921.661 283.049 923.043 283.049C923.388 283.049 923.595 283.072 923.78 283.141V285.881H923.711C921.661 285.674 920.188 286.756 920.188 289.243V295H917.056V283.187H920.072ZM930.387 295.345C926.726 295.345 924.216 292.628 924.216 289.105C924.216 285.582 926.726 282.865 930.387 282.865C934.048 282.865 936.558 285.582 936.558 289.105C936.558 292.628 934.048 295.345 930.387 295.345ZM930.387 292.951C932.298 292.951 933.38 291.408 933.38 289.105C933.38 286.803 932.298 285.237 930.387 285.237C928.453 285.237 927.393 286.803 927.393 289.105C927.393 291.408 928.453 292.951 930.387 292.951Z" fill="black"/>
<path d="M855.645 525.368C851.178 525.368 848.645 523.388 848.53 519.911H851.799C852.03 521.891 853.158 522.674 855.507 522.674C857.211 522.674 858.707 522.076 858.707 520.556C858.707 518.944 857.142 518.622 854.632 518.046C851.684 517.378 848.99 516.595 848.99 513.164C848.99 509.918 851.638 508.237 855.299 508.237C859.007 508.237 861.401 510.056 861.655 513.372H858.454C858.27 511.714 856.98 510.885 855.276 510.885C853.48 510.885 852.306 511.645 852.306 512.819C852.306 514.154 853.457 514.546 855.898 515.076C859.283 515.812 862.046 516.618 862.046 520.164C862.046 523.503 859.352 525.368 855.645 525.368ZM870.531 525.368C866.064 525.368 863.531 523.388 863.416 519.911H866.686C866.916 521.891 868.044 522.674 870.393 522.674C872.097 522.674 873.594 522.076 873.594 520.556C873.594 518.944 872.028 518.622 869.518 518.046C866.571 517.378 863.876 516.595 863.876 513.164C863.876 509.918 866.525 508.237 870.186 508.237C873.893 508.237 876.288 510.056 876.541 513.372H873.34C873.156 511.714 871.867 510.885 870.163 510.885C868.367 510.885 867.192 511.645 867.192 512.819C867.192 514.154 868.344 514.546 870.784 515.076C874.169 515.812 876.933 516.618 876.933 520.164C876.933 523.503 874.238 525.368 870.531 525.368ZM877.378 511.345V508.536H890.618V511.345H885.667V525H882.328V511.345H877.378Z" fill="black"/>
<circle cx="833.5" cy="288.5" r="14.5" fill="#A9C5FA"/>
<circle cx="823.5" cy="520.5" r="14.5" fill="#6DD66E"/>
<path d="M7.64483 295.368C3.17767 295.368 0.644745 293.388 0.529612 289.911H3.79939C4.02966 291.891 5.15796 292.674 7.50667 292.674C9.21064 292.674 10.7074 292.076 10.7074 290.556C10.7074 288.944 9.14156 288.622 6.63166 288.046C3.68426 287.378 0.990144 286.595 0.990144 283.164C0.990144 279.918 3.6382 278.237 7.29943 278.237C11.0067 278.237 13.4015 280.056 13.6548 283.372H10.4541C10.2699 281.714 8.98037 280.885 7.27641 280.885C5.48033 280.885 4.30597 281.645 4.30597 282.819C4.30597 284.154 5.4573 284.546 7.89812 285.076C11.283 285.812 14.0462 286.618 14.0462 290.164C14.0462 293.503 11.3521 295.368 7.64483 295.368ZM15.7871 295V283.187H18.9187V295H15.7871ZM15.7871 281.345V278.536H18.9187V281.345H15.7871ZM26.1406 299.03C22.9169 299.03 20.9366 297.648 20.6142 295.345H23.7228C23.9761 296.082 24.6439 296.658 26.0945 296.658C27.8676 296.658 28.7196 295.806 28.7196 294.194V292.905H28.6505C27.9597 293.687 27.0617 294.286 25.5649 294.286C22.9399 294.286 20.3609 292.214 20.3609 288.645C20.3609 285.122 22.4794 282.865 25.4728 282.865C26.9465 282.865 28.0288 283.441 28.7426 284.431H28.7886V283.187H31.8051V294.102C31.8051 295.76 31.2755 296.888 30.4005 297.694C29.4104 298.615 27.8906 299.03 26.1406 299.03ZM26.0945 291.776C28.0748 291.776 28.8808 290.326 28.8808 288.576C28.8808 286.849 27.9597 285.375 26.0715 285.375C24.4827 285.375 23.4235 286.618 23.4235 288.599C23.4235 290.602 24.4827 291.776 26.0945 291.776ZM36.8841 283.187V284.799H36.9532C37.7591 283.533 38.8414 282.865 40.4532 282.865C42.8941 282.865 44.5289 284.707 44.5289 287.286V295H41.3973V287.747C41.3973 286.48 40.6605 285.582 39.348 285.582C37.9664 285.582 36.9532 286.687 36.9532 288.299V295H33.8216V283.187H36.8841ZM52.0086 295.345C48.0941 295.345 45.8836 292.605 45.8836 289.082C45.8836 285.582 48.2553 282.865 51.7093 282.865C55.5087 282.865 57.535 285.766 57.535 289.98H48.9691C49.1994 291.799 50.2126 292.928 51.9856 292.928C53.206 292.928 53.9198 292.375 54.2652 291.477H57.3508C56.9133 293.572 55.0481 295.345 52.0086 295.345ZM51.7553 285.283C50.0974 285.283 49.2915 286.273 49.0152 287.816H54.2652C54.1731 286.319 53.183 285.283 51.7553 285.283ZM62.0009 283.187V285.076H62.07C62.7838 283.74 63.5898 283.049 64.9714 283.049C65.3167 283.049 65.524 283.072 65.7082 283.141V285.881H65.6391C63.5898 285.674 62.1161 286.756 62.1161 289.243V295H58.9844V283.187H62.0009Z" fill="black"/>
<path d="M46.3324 525L46.2173 522.789H46.1712C45.0429 524.678 43.5001 525.345 41.5429 525.345C39.056 525.345 37.1218 524.447 35.7632 522.951C34.4046 521.431 33.6217 519.312 33.6217 516.826C33.6217 514.085 34.5888 511.691 36.3158 510.102C37.6514 508.881 39.4014 508.214 41.6119 508.214C45.7567 508.214 48.1285 510.493 48.6581 513.717H45.3883C45.0199 512.128 43.7995 510.977 41.681 510.977C38.5724 510.977 37.0297 513.556 37.0297 516.826C37.0297 520.187 38.8027 522.651 41.635 522.651C44.1909 522.651 45.8719 520.74 45.8719 518.921V518.829H41.9113V516.25H48.8423V525H46.3324ZM51.1766 525V508.536H63.2886V511.345H54.5155V515.029H62.2064V517.77H54.5155V522.214H63.3577V525H51.1766ZM65.4333 525V508.536H71.8577C76.2558 508.536 79.0881 512.082 79.0881 516.941C79.0881 519.612 78.1901 521.96 76.4631 523.411C75.2427 524.424 73.6538 525 71.5814 525H65.4333ZM68.7722 522.122H71.3512C74.4828 522.122 75.7032 520.21 75.7032 516.941C75.7032 513.671 74.2755 511.391 71.4433 511.391H68.7722V522.122Z" fill="black"/>
<path class="eco-dash" d="M290 619C165.736 619 65 519.383 65 396.5C65 273.617 165.736 174 290 174" stroke="#C4C4C4" stroke-opacity="0.38" stroke-width="2" stroke-dasharray="42 42"/>
<circle cx="14.5" cy="14.5" r="14.5" transform="matrix(-1 0 0 1 110 274)" fill="#FF5500"/>
<circle cx="14.5" cy="14.5" r="14.5" transform="matrix(-1 0 0 1 119 506)" fill="#A185D7"/>
<path class="eco-dash" d="M689 225C689 101.84 588.488 1.99999 464.5 2C340.512 2 240 101.841 240 225" stroke="#C4C4C4" stroke-opacity="0.38" stroke-width="2" stroke-dasharray="42 42"/>
<path d="M224.266 71V54.536H231.497C233.408 54.536 234.836 55.0886 235.803 56.0788C236.724 57.0229 237.276 58.3123 237.276 59.8321C237.276 62.9407 235.227 65.0361 231.773 65.0361H227.72V71H224.266ZM227.72 57.4373V62.319H231.174C232.924 62.319 233.846 61.3519 233.846 59.8551C233.846 58.3123 232.878 57.4373 231.22 57.4373H227.72ZM243.933 71.3454C240.272 71.3454 237.762 68.6283 237.762 65.1052C237.762 61.5821 240.272 58.865 243.933 58.865C247.594 58.865 250.104 61.5821 250.104 65.1052C250.104 68.6283 247.594 71.3454 243.933 71.3454ZM243.933 68.9506C245.844 68.9506 246.926 67.4079 246.926 65.1052C246.926 62.8025 245.844 61.2367 243.933 61.2367C241.999 61.2367 240.939 62.8025 240.939 65.1052C240.939 67.4079 241.999 68.9506 243.933 68.9506ZM254.622 59.1874V60.7992H254.691C255.497 59.5328 256.579 58.865 258.191 58.865C260.632 58.865 262.267 60.7071 262.267 63.2861V71H259.135V63.7466C259.135 62.4802 258.399 61.5821 257.086 61.5821C255.704 61.5821 254.691 62.6874 254.691 64.2993V71H251.56V59.1874H254.622ZM263.282 61.2597V59.1874H264.917V55.5031H267.979V59.1874H270.005V61.2597H267.979V67.523C267.979 68.398 268.463 68.6973 269.153 68.6973C269.545 68.6973 270.074 68.6743 270.074 68.6743V70.977C270.074 70.977 269.361 71.023 268.117 71.023C266.597 71.023 264.917 70.4243 264.917 68.1908V61.2597H263.282ZM277.101 71.3454C273.44 71.3454 270.93 68.6283 270.93 65.1052C270.93 61.5821 273.44 58.865 277.101 58.865C280.762 58.865 283.272 61.5821 283.272 65.1052C283.272 68.6283 280.762 71.3454 277.101 71.3454ZM277.101 68.9506C279.012 68.9506 280.094 67.4079 280.094 65.1052C280.094 62.8025 279.012 61.2367 277.101 61.2367C275.167 61.2367 274.108 62.8025 274.108 65.1052C274.108 67.4079 275.167 68.9506 277.101 68.9506Z" fill="black"/>
<path d="M648.266 69V52.536H660.378V55.3452H651.605V59.0295H659.296V61.7696H651.605V66.2138H660.448V69H648.266ZM662.523 69V52.536H670.076C673.254 52.536 675.372 54.3781 675.372 57.1183C675.372 59.0525 674.474 60.5262 672.356 61.1019V61.171C673.875 61.6085 674.658 62.4835 674.865 64.4868C675.096 66.8125 675.004 68.5855 675.579 68.8388V69H672.379C671.964 68.8158 671.918 66.9737 671.78 65.2006C671.642 63.4045 670.629 62.3914 668.556 62.3914H665.862V69H662.523ZM665.862 55.2301V59.8124H669.408C671.227 59.8124 672.125 58.8683 672.125 57.5558C672.125 56.2202 671.273 55.2301 669.5 55.2301H665.862ZM677.522 69V52.536H684.752C686.663 52.536 688.091 53.0886 689.058 54.0788C689.979 55.0229 690.532 56.3123 690.532 57.8321C690.532 60.9407 688.483 63.0361 685.029 63.0361H680.976V69H677.522ZM680.976 55.4373V60.319H684.43C686.18 60.319 687.101 59.3519 687.101 57.8551C687.101 56.3123 686.134 55.4373 684.476 55.4373H680.976Z" fill="black"/>
<path d="M277.474 23.3454C272.845 23.3454 269.553 19.7763 269.553 14.8256C269.553 9.94392 272.592 6.21361 277.451 6.21361C281.503 6.21361 283.898 8.6314 284.244 11.763H280.928C280.628 10.1051 279.385 9.02285 277.451 9.02285C274.411 9.02285 272.961 11.5558 272.961 14.8256C272.961 18.1874 274.711 20.6052 277.474 20.6052C279.431 20.6052 280.813 19.4309 281.02 17.7039H284.29C284.198 19.1546 283.576 20.5592 282.471 21.5954C281.342 22.6546 279.753 23.3454 277.474 23.3454ZM291.462 23.3454C287.801 23.3454 285.291 20.6283 285.291 17.1052C285.291 13.5821 287.801 10.865 291.462 10.865C295.123 10.865 297.633 13.5821 297.633 17.1052C297.633 20.6283 295.123 23.3454 291.462 23.3454ZM291.462 20.9506C293.373 20.9506 294.455 19.4079 294.455 17.1052C294.455 14.8025 293.373 13.2367 291.462 13.2367C289.528 13.2367 288.468 14.8025 288.468 17.1052C288.468 19.4079 289.528 20.9506 291.462 20.9506ZM302.151 11.1874V12.7992H302.22C303.026 11.5328 304.109 10.865 305.72 10.865C308.161 10.865 309.796 12.7071 309.796 15.2861V23H306.665V15.7466C306.665 14.4802 305.928 13.5821 304.615 13.5821C303.234 13.5821 302.22 14.6874 302.22 16.2993V23H299.089V11.1874H302.151ZM317.207 23.3454C313.476 23.3454 311.151 20.6283 311.151 17.1052C311.151 13.5821 313.453 10.865 317.046 10.865C320.108 10.865 321.996 12.638 322.411 15.194H319.348C319.141 14.1578 318.335 13.3749 317.184 13.3749C315.296 13.3749 314.328 14.8256 314.328 17.1052C314.328 19.3388 315.226 20.8355 317.138 20.8355C318.404 20.8355 319.302 20.1677 319.509 18.8322H322.526C322.319 21.3421 320.361 23.3454 317.207 23.3454ZM323.892 23V11.1874H327.023V23H323.892ZM323.892 9.34523V6.53598H327.023V9.34523H323.892ZM329.087 23V6.53598H332.219V23H329.087ZM334.281 23V11.1874H337.412V23H334.281ZM334.281 9.34523V6.53598H337.412V9.34523H334.281ZM346.868 23C346.684 22.7697 346.569 22.2171 346.499 21.6875H346.453C345.855 22.5855 345.003 23.2763 342.976 23.2763C340.559 23.2763 338.855 22.0099 338.855 19.6611C338.855 17.0591 340.973 16.2302 343.598 15.8618C345.555 15.5854 346.453 15.4242 346.453 14.5262C346.453 13.6742 345.786 13.1216 344.473 13.1216C342.999 13.1216 342.286 13.6512 342.193 14.7795H339.407C339.499 12.7071 341.042 10.888 344.496 10.888C348.042 10.888 349.47 12.4768 349.47 15.24V21.25C349.47 22.148 349.608 22.6776 349.884 22.8849V23H346.868ZM343.736 21.0888C345.532 21.0888 346.522 19.9835 346.522 18.8322V17.0591C345.97 17.3815 345.118 17.5657 344.335 17.7499C342.7 18.1184 341.894 18.4868 341.894 19.5921C341.894 20.6973 342.631 21.0888 343.736 21.0888Z" fill="black"/>
<ellipse cx="305.5" cy="64.5" rx="14.5" ry="14.5" transform="rotate(-90 305.5 64.5)" fill="#1B272F"/>
<ellipse cx="375.5" cy="17.5" rx="14.5" ry="14.5" transform="rotate(-90 375.5 17.5)" fill="#614AD0"/>
<ellipse cx="621.5" cy="67.5" rx="14.5" ry="14.5" transform="rotate(-90 621.5 67.5)" fill="#2C6EFF"/>
<path d="M575.266 21V4.53598H578.651L584.132 13.7236C584.661 14.6216 585.283 16.0263 585.283 16.0263H585.329C585.329 16.0263 585.237 14.3223 585.237 13.171V4.53598H588.53V21H585.306L579.688 11.9045C579.158 11.0295 578.513 9.62486 578.513 9.62486H578.467C578.467 9.62486 578.559 11.3519 578.559 12.5032V21H575.266ZM596.394 21.3454C592.733 21.3454 590.223 18.6283 590.223 15.1052C590.223 11.5821 592.733 8.86498 596.394 8.86498C600.056 8.86498 602.566 11.5821 602.566 15.1052C602.566 18.6283 600.056 21.3454 596.394 21.3454ZM596.394 18.9506C598.306 18.9506 599.388 17.4079 599.388 15.1052C599.388 12.8025 598.306 11.2367 596.394 11.2367C594.46 11.2367 593.401 12.8025 593.401 15.1052C593.401 17.4079 594.46 18.9506 596.394 18.9506ZM603.106 11.2597V9.18735H604.741V5.5031H607.803V9.18735H609.829V11.2597H607.803V17.523C607.803 18.398 608.287 18.6973 608.977 18.6973C609.369 18.6973 609.898 18.6743 609.898 18.6743V20.977C609.898 20.977 609.185 21.023 607.941 21.023C606.421 21.023 604.741 20.4243 604.741 18.1908V11.2597H603.106ZM618.992 21C618.808 20.7697 618.693 20.2171 618.624 19.6875H618.578C617.979 20.5855 617.127 21.2763 615.101 21.2763C612.683 21.2763 610.979 20.0099 610.979 17.6611C610.979 15.0591 613.097 14.2302 615.722 13.8618C617.679 13.5854 618.578 13.4242 618.578 12.5262C618.578 11.6742 617.91 11.1216 616.597 11.1216C615.124 11.1216 614.41 11.6512 614.318 12.7795H611.531C611.623 10.7071 613.166 8.88801 616.62 8.88801C620.166 8.88801 621.594 10.4768 621.594 13.24V19.25C621.594 20.148 621.732 20.6776 622.008 20.8849V21H618.992ZM615.86 19.0888C617.656 19.0888 618.647 17.9835 618.647 16.8322V15.0591C618.094 15.3815 617.242 15.5657 616.459 15.7499C614.824 16.1184 614.018 16.4868 614.018 17.5921C614.018 18.6973 614.755 19.0888 615.86 19.0888Z" fill="black"/>
<ellipse cx="553.5" cy="17.5" rx="14.5" ry="14.5" transform="rotate(-90 553.5 17.5)" fill="#8ECCF0"/>
<path d="M424.202 843.276C419.942 843.276 417.709 841.273 417.709 837.704V826.536H421.048V837.704C421.048 839.408 421.9 840.605 424.133 840.605C426.252 840.605 427.242 839.362 427.242 837.658V826.536H430.581V837.704C430.581 841.227 428.416 843.276 424.202 843.276ZM432.727 846.868V831.187H435.744V832.661H435.813C436.573 831.625 437.678 830.865 439.29 830.865C442.421 830.865 444.425 833.421 444.425 837.105C444.425 840.928 442.352 843.345 439.313 843.345C437.655 843.345 436.573 842.678 435.905 841.664H435.859V846.868H432.727ZM438.645 840.743C440.234 840.743 441.247 839.431 441.247 837.197C441.247 834.964 440.464 833.398 438.53 833.398C436.573 833.398 435.79 835.079 435.79 837.197C435.79 839.339 436.78 840.743 438.645 840.743ZM450.003 843V826.536H456.428C460.826 826.536 463.658 830.082 463.658 834.941C463.658 837.612 462.76 839.96 461.033 841.411C459.812 842.424 458.224 843 456.151 843H450.003ZM453.342 840.122H455.921C459.053 840.122 460.273 838.21 460.273 834.941C460.273 831.671 458.845 829.391 456.013 829.391H453.342V840.122ZM465.221 843V831.187H468.352V843H465.221ZM465.221 829.345V826.536H468.352V829.345H465.221ZM475.574 847.03C472.351 847.03 470.37 845.648 470.048 843.345H473.157C473.41 844.082 474.078 844.658 475.528 844.658C477.301 844.658 478.153 843.806 478.153 842.194V840.905H478.084C477.393 841.687 476.495 842.286 474.999 842.286C472.374 842.286 469.795 840.214 469.795 836.645C469.795 833.122 471.913 830.865 474.907 830.865C476.38 830.865 477.463 831.441 478.176 832.431H478.222V831.187H481.239V842.102C481.239 843.76 480.709 844.888 479.834 845.694C478.844 846.615 477.324 847.03 475.574 847.03ZM475.528 839.776C477.509 839.776 478.315 838.326 478.315 836.576C478.315 834.849 477.393 833.375 475.505 833.375C473.916 833.375 472.857 834.618 472.857 836.599C472.857 838.602 473.916 839.776 475.528 839.776ZM483.255 843V831.187H486.387V843H483.255ZM483.255 829.345V826.536H486.387V829.345H483.255ZM487.714 833.26V831.187H489.349V827.503H492.411V831.187H494.438V833.26H492.411V839.523C492.411 840.398 492.895 840.697 493.586 840.697C493.977 840.697 494.507 840.674 494.507 840.674V842.977C494.507 842.977 493.793 843.023 492.55 843.023C491.03 843.023 489.349 842.424 489.349 840.191V833.26H487.714ZM503.6 843C503.416 842.77 503.301 842.217 503.232 841.687H503.186C502.587 842.586 501.735 843.276 499.709 843.276C497.291 843.276 495.587 842.01 495.587 839.661C495.587 837.059 497.706 836.23 500.331 835.862C502.288 835.585 503.186 835.424 503.186 834.526C503.186 833.674 502.518 833.122 501.206 833.122C499.732 833.122 499.018 833.651 498.926 834.78H496.14C496.232 832.707 497.775 830.888 501.229 830.888C504.775 830.888 506.202 832.477 506.202 835.24V841.25C506.202 842.148 506.341 842.678 506.617 842.885V843H503.6ZM500.469 841.089C502.265 841.089 503.255 839.984 503.255 838.832V837.059C502.702 837.382 501.85 837.566 501.067 837.75C499.433 838.118 498.627 838.487 498.627 839.592C498.627 840.697 499.364 841.089 500.469 841.089ZM508.239 843V826.536H511.371V843H508.239Z" fill="black"/>
<path class="eco-dash" d="M690 568C690 691.712 589.04 792 464.5 792C339.96 792 239 691.712 239 568" stroke="#C4C4C4" stroke-opacity="0.38" stroke-width="2" stroke-dasharray="42 42"/>
<ellipse cx="14.5" cy="14.5" rx="14.5" ry="14.5" transform="matrix(4.40518e-08 1 1 -4.33736e-08 450 778)" fill="#5AC3F2"/>
</g>
</svg>
